<?xml version="1.0" encoding="UTF-8"?>
<svg xmlns="http://www.w3.org/2000/svg" xmlns:xlink="http://www.w3.org/1999/xlink" width="24px" height="24px" viewBox="0 0 24 24" version="1.1">
<defs>
<linearGradient id="linear0" gradientUnits="userSpaceOnUse" x1="2.8431" y1="14.1569" x2="14.1569" y2="2.8431" gradientTransform="matrix(1.411765,0,0,1.411765,0,0)">
<stop offset="0.1564" style="stop-color:rgb(12.941176%,14.117647%,29.019608%);stop-opacity:1;"/>
<stop offset="1" style="stop-color:rgb(70.980392%,74.509804%,85.882353%);stop-opacity:1;"/>
</linearGradient>
</defs>
<g id="surface1">
<path style=" stroke:none;fill-rule:nonzero;fill:url(#linear0);" d="M 23.292969 12 C 23.292969 5.761719 18.238281 0.707031 12 0.707031 C 5.761719 0.707031 0.707031 5.761719 0.707031 12 C 0.707031 18.238281 5.761719 23.292969 12 23.292969 C 18.238281 23.292969 23.292969 18.238281 23.292969 12 Z M 23.292969 12 "/>
<path style=" stroke:none;fill-rule:nonzero;fill:rgb(100%,100%,100%);fill-opacity:1;" d="M 2.9375 11.871094 C 2.9375 11.871094 28.757812 4.304688 14.949219 17.519531 C 14.949219 17.519531 18.199219 16.6875 19.242188 12.761719 C 20.371094 8.625 19.398438 6.777344 17.519531 6.664062 C 16.066406 6.605469 12.578125 6.238281 2.9375 11.871094 "/>
</g>
</svg>
